<svg xmlns="http://www.w3.org/2000/svg" xmlns:xlink="http://www.w3.org/1999/xlink" xml:space="preserve" width="480" height="420" style="shape-rendering:geometricPrecision;fill-rule:evenodd;clip-rule:evenodd"><defs><path id="b" d="m374 83 16 9c11 6 20 11 26 15 9 5 11 9 6 12-4 4-12 4-23-3-9-6-17-11-33-20-8 1-18 2-28 3 17 8 33 17 49 26l14 8c5 3 4 6-2 8-6 4-14 1-21-3l-15-8c-18-9-36-19-54-29l-31 3c19 9 38 18 56 28l55 27c4 2 4 6-1 8-6 3-14 3-19 1l-61-30c-21-11-42-21-63-31l-34 3 65 29c20 10 43 19 63 29 5 2 5 6-1 9-5 3-14 3-19 1l-71-32c-25-11-49-22-73-31l-37 3 76 32 49 20c5 2 5 6-1 9s-16 4-22 2l-54-23-87-35-22-10-2-1c-23-11-11-25 12-16l6 2 34-4-6-3-7-4-2-1c-4-2-10-5-18-10-12-6-13-22 20-8 9 4 24 12 41 21l41-3c-15-7-31-14-46-22-16-8-32-15-48-23-12-6-4-21 34-2l18 9c15 8 31 15 46 22l24 11 39-2-40-21c-14-7-14-7-20-11-18-11-8-23 36 0l15 8 39 21 35-2-37-21c-11-7-23-14-51-31-24-14-3-23 31 0l35 20c11 7 22 13 49 30zM66 131l75 28 84 32c6 2 6 7-1 10s-17 4-24 2c-30-12-62-24-95-36-13-5-26-9-39-14l-27-10c-23-10-22-30 5-20zm-10 35 94 32c7 2 7 7-1 11-7 3-18 4-25 2l-61-21c-15-6-7-24 15-17zm12 42c8 3 15 5 23 7 7 3 7 8-1 12-6 3-15 4-30 2-35-7-28-31-10-26zM415 70c14 7 17 10 13 14s-10 4-17 1l-95-56c-20-12-4-21 20-6z" style="fill:#fff;fill-rule:nonzero;opacity:.5"/><g id="a" style="display:initial!important"><path d="m416 59-7 23m15-8-23-6" style="stroke:#52b1ff;stroke-width:8.85827;stroke-linecap:round;stroke-linejoin:round"/><path d="m90 105-12 45m29-16-45-12" style="stroke:gray;stroke-width:5.90551;stroke-linecap:round;stroke-linejoin:round"/><path d="m282 13-12 45m28-16-45-12" style="stroke:#ccc;stroke-width:2.95276;stroke-linecap:round;stroke-linejoin:round"/><path d="m59 58-6 23m14-9-23-6" style="stroke:#52b1ff;stroke-width:8.85827;stroke-linecap:round;stroke-linejoin:round"/><path d="m91 332-12 45m28-17-45-12m357-213-12 45m29-16-45-12" style="stroke:#fff;stroke-width:2.95276;stroke-linecap:round;stroke-linejoin:round"/><path d="M382 210c0-79-63-142-142-142S98 131 98 210s63 142 142 142 142-63 142-142z" style="fill:#023557;stroke:#062845;stroke-width:11.811"/><path d="M254 69h-14c-78 0-141 63-141 141s63 141 141 141h13c18-3 14-21 8-25-29-22-49-66-49-116 0-51 20-94 49-117 7-2 9-21-7-24z" style="fill:#fff2c9;stroke:#062845;stroke-width:11.811"/></g></defs><use xlink:href="#a"/><use xlink:href="#b"/></svg>