<svg xmlns="http://www.w3.org/2000/svg" xmlns:xlink="http://www.w3.org/1999/xlink" xml:space="preserve" width="480" height="420" style="shape-rendering:geometricPrecision;fill-rule:evenodd;clip-rule:evenodd"><defs><path id="b" d="M175 137c2 2 2 6 0 8s-6 2-8 0l-63-63c-2-2-2-6 0-8 3-2 6-2 9 0l62 63zm-33 67c4 0 6 3 6 6s-2 6-6 6H54c-4 0-6-3-6-6s2-6 6-6h88zM367 74c3-2 6-2 9 0 2 2 2 6 0 8l-63 63c-2 2-6 2-8 0s-2-6 0-8l62-63zM167 275c2-2 6-2 8 0s2 6 0 8l-62 63c-3 2-6 2-9 0-2-2-2-6 0-8l63-63zm-15-108c3 2 4 5 3 8s-5 4-8 3l-33-14c-3-1-4-4-3-7s5-5 8-3l33 13zm134-83c1-3 4-4 7-3s5 5 3 8l-13 33c-1 3-5 4-8 3s-4-5-3-8l14-33zm-89 214c1-3 5-4 8-3s4 5 3 8l-14 33c-1 3-4 4-7 3s-5-5-4-8l14-33zm164-144c3-2 6 0 8 3 1 3-1 6-4 7l-32 14c-3 1-7 0-8-3s0-7 3-8l33-13zm-214 88c3-1 7 0 8 3s0 7-3 8l-33 14c-3 1-6-1-8-4-1-3 0-6 3-7l33-14zm61-125c1 3 0 7-3 8s-7 0-8-3l-13-33c-2-3 0-6 3-8 3-1 6 0 8 4l13 32zm26-93c0-4 3-6 6-6s6 2 6 6v88c0 3-3 6-6 6s-6-3-6-6V24zm6 260c41 0 74-33 74-74s-33-74-74-74-74 33-74 74 33 74 74 74z" style="fill:#ffd153"/><path id="a" d="M338 263c0-31-26-57-58-57-10 0-19 2-28 7-7-44-45-78-91-78-52 0-94 41-94 93 0 8 1 15 3 23-2-1-5-1-8-1-20 0-36 16-36 35 0 20 16 36 36 36h218c32 0 58-26 58-58zm-87-12c2-8 3-15 3-23 0-5-1-10-2-15" style="stroke:inherit;stroke-linecap:round;stroke-linejoin:round"/><path id="d" d="m399 61-1 5c0 14-15 39-36 55s-49 23-76 23h-1c-20 27-56 44-96 51-43 8-91 5-136-9-26-7-28-32 7-22 36 12 83 16 125 8 37-7 69-22 84-46 2-3 6-6 11-5h6c23 0 45-6 62-19 16-12 27-31 28-46v-5c-1-22 23-27 23 4zm-84-28c1 9 1 19-3 35-4 15-12 24-20 33-8 8-18 14-30 18-8 3-16 4-25 4-17 19-41 31-69 36-35 7-75 4-93-5-27-13-18-32 2-23 15 7 53 12 86 5 25-5 46-15 59-32 2-3 6-5 11-5 7 1 15 0 22-3 8-2 15-6 19-11 5-5 12-10 16-20 5-14 3-25 2-37-4-26 19-23 22-2zM214 45c1 3 1 4 1 8 1 12-1 23-7 34s-16 20-30 28h-1c-25 13-63 20-115-5-23-12-12-32 7-20 41 21 76 16 97 4h1c10-5 17-12 21-18 3-6 4-13 4-19 0-5 0-9-1-13-3-25 20-20 23 0z" style="fill:#fff;fill-rule:nonzero;opacity:.5"/><use xlink:href="#a" id="c" style="stroke-width:18" transform="matrix(.65 0 0 .65 230 135)"/></defs><use xlink:href="#b"/><use xlink:href="#c" style="stroke:#fff;fill:#ccc"/><use xlink:href="#d"/></svg>