<svg xmlns="http://www.w3.org/2000/svg" xmlns:xlink="http://www.w3.org/1999/xlink" xml:space="preserve" width="480" height="420" style="shape-rendering:geometricPrecision;fill-rule:evenodd;clip-rule:evenodd"><defs><path id="a" d="M338 263c0-31-26-57-58-57-10 0-19 2-28 7-7-44-45-78-91-78-52 0-94 41-94 93 0 8 1 15 3 23-2-1-5-1-8-1-20 0-36 16-36 35 0 20 16 36 36 36h218c32 0 58-26 58-58zm-87-12c2-8 3-15 3-23 0-5-1-10-2-15" style="stroke:inherit;stroke-linecap:round;stroke-linejoin:round"/><path id="e" d="m399 61-1 5c0 14-15 39-36 55s-49 23-76 23h-1c-20 27-56 44-96 51-43 8-91 5-136-9-26-7-28-32 7-22 36 12 83 16 125 8 37-7 69-22 84-46 2-3 6-6 11-5h6c23 0 45-6 62-19 16-12 27-31 28-46v-5c-1-22 23-27 23 4zm-84-28c1 9 1 19-3 35-4 15-12 24-20 33-8 8-18 14-30 18-8 3-16 4-25 4-17 19-41 31-69 36-35 7-75 4-93-5-27-13-18-32 2-23 15 7 53 12 86 5 25-5 46-15 59-32 2-3 6-5 11-5 7 1 15 0 22-3 8-2 15-6 19-11 5-5 12-10 16-20 5-14 3-25 2-37-4-26 19-23 22-2zM214 45c1 3 1 4 1 8 1 12-1 23-7 34s-16 20-30 28h-1c-25 13-63 20-115-5-23-12-12-32 7-20 41 21 76 16 97 4h1c10-5 17-12 21-18 3-6 4-13 4-19 0-5 0-9-1-13-3-25 20-20 23 0z" style="fill:#fff;fill-rule:nonzero;opacity:.5"/><use xlink:href="#a" id="c" style="stroke-width:18" transform="matrix(.65 0 0 .65 40 125)"/><use xlink:href="#a" id="d" style="stroke-width:18" transform="matrix(.65 0 0 .65 210 100)"/><g id="b" style="display:initial!important"><path d="m416 59-7 23m15-8-23-6" style="stroke:#52b1ff;stroke-width:8.85827;stroke-linecap:round;stroke-linejoin:round"/><path d="m90 105-12 45m29-16-45-12" style="stroke:gray;stroke-width:5.90551;stroke-linecap:round;stroke-linejoin:round"/><path d="m282 13-12 45m28-16-45-12" style="stroke:#ccc;stroke-width:2.95276;stroke-linecap:round;stroke-linejoin:round"/><path d="m59 58-6 23m14-9-23-6" style="stroke:#52b1ff;stroke-width:8.85827;stroke-linecap:round;stroke-linejoin:round"/><path d="m91 332-12 45m28-17-45-12m357-213-12 45m29-16-45-12" style="stroke:#fff;stroke-width:2.95276;stroke-linecap:round;stroke-linejoin:round"/><path d="M382 210c0-79-63-142-142-142S98 131 98 210s63 142 142 142 142-63 142-142z" style="fill:#023557;stroke:#062845;stroke-width:11.811"/><path d="M254 69h-14c-78 0-141 63-141 141s63 141 141 141h13c18-3 14-21 8-25-29-22-49-66-49-116 0-51 20-94 49-117 7-2 9-21-7-24z" style="fill:#fff2c9;stroke:#062845;stroke-width:11.811"/></g></defs><use xlink:href="#b"/><use xlink:href="#c" style="stroke:#023557;fill:#e6e6e6"/><use xlink:href="#d" style="stroke:#023557;fill:#e6e6e6"/><use xlink:href="#e"/></svg>