<svg xmlns="http://www.w3.org/2000/svg" xmlns:xlink="http://www.w3.org/1999/xlink" xml:space="preserve" width="480" height="420" style="shape-rendering:geometricPrecision;fill-rule:evenodd;clip-rule:evenodd"><defs><path id="b" d="M376 338c2 2 2 6 0 8-3 2-6 2-9 0l-62-63c-2-2-2-6 0-8s6-2 8 0l63 63zM175 137c2 2 2 6 0 8s-6 2-8 0l-63-63c-2-2-2-6 0-8 3-2 6-2 9 0l62 63zm251 67c4 0 6 3 6 6s-2 6-6 6h-88c-4 0-6-3-6-6s2-6 6-6h88zm-284 0c4 0 6 3 6 6s-2 6-6 6H54c-4 0-6-3-6-6s2-6 6-6h88zM367 74c3-2 6-2 9 0 2 2 2 6 0 8l-63 63c-2 2-6 2-8 0s-2-6 0-8l62-63zM167 275c2-2 6-2 8 0s2 6 0 8l-62 63c-3 2-6 2-9 0-2-2-2-6 0-8l63-63zm198-19c4 1 5 4 4 7-2 3-5 5-8 4l-33-14c-3-1-4-5-3-8s5-4 8-3l32 14zm-213-89c3 2 4 5 3 8s-5 4-8 3l-33-14c-3-1-4-4-3-7s5-5 8-3l33 13zm134-83c1-3 4-4 7-3s5 5 3 8l-13 33c-1 3-5 4-8 3s-4-5-3-8l14-33zm-89 214c1-3 5-4 8-3s4 5 3 8l-14 33c-1 3-4 4-7 3s-5-5-4-8l14-33zm164-144c3-2 6 0 8 3 1 3-1 6-4 7l-32 14c-3 1-7 0-8-3s0-7 3-8l33-13zm-214 88c3-1 7 0 8 3s0 7-3 8l-33 14c-3 1-6-1-8-4-1-3 0-6 3-7l33-14zm149 89c2 3 0 7-3 8s-6 0-7-3l-14-33c-1-3 0-7 3-8s7 0 8 3l13 33zm-88-214c1 3 0 7-3 8s-7 0-8-3l-13-33c-2-3 0-6 3-8 3-1 6 0 8 4l13 32zm26-93c0-4 3-6 6-6s6 2 6 6v88c0 3-3 6-6 6s-6-3-6-6V24zm0 284c0-3 3-6 6-6s6 3 6 6v88c0 4-3 6-6 6s-6-2-6-6v-88zm6-24c41 0 74-33 74-74s-33-74-74-74-74 33-74 74 33 74 74 74z" style="fill:#ffd153"/><path id="a" d="M338 263c0-31-26-57-58-57-10 0-19 2-28 7-7-44-45-78-91-78-52 0-94 41-94 93 0 8 1 15 3 23-2-1-5-1-8-1-20 0-36 16-36 35 0 20 16 36 36 36h218c32 0 58-26 58-58zm-87-12c2-8 3-15 3-23 0-5-1-10-2-15" style="stroke:inherit;stroke-linecap:round;stroke-linejoin:round"/><path id="e" d="m374 83 16 9c11 6 20 11 26 15 9 5 11 9 6 12-4 4-12 4-23-3-9-6-17-11-33-20-8 1-18 2-28 3 17 8 33 17 49 26l14 8c5 3 4 6-2 8-6 4-14 1-21-3l-15-8c-18-9-36-19-54-29l-31 3c19 9 38 18 56 28l55 27c4 2 4 6-1 8-6 3-14 3-19 1l-61-30c-21-11-42-21-63-31l-34 3 65 29c20 10 43 19 63 29 5 2 5 6-1 9-5 3-14 3-19 1l-71-32c-25-11-49-22-73-31l-37 3 76 32 49 20c5 2 5 6-1 9s-16 4-22 2l-54-23-87-35-22-10-2-1c-23-11-11-25 12-16l6 2 34-4-6-3-7-4-2-1c-4-2-10-5-18-10-12-6-13-22 20-8 9 4 24 12 41 21l41-3c-15-7-31-14-46-22-16-8-32-15-48-23-12-6-4-21 34-2l18 9c15 8 31 15 46 22l24 11 39-2-40-21c-14-7-14-7-20-11-18-11-8-23 36 0l15 8 39 21 35-2-37-21c-11-7-23-14-51-31-24-14-3-23 31 0l35 20c11 7 22 13 49 30zM66 131l75 28 84 32c6 2 6 7-1 10s-17 4-24 2c-30-12-62-24-95-36-13-5-26-9-39-14l-27-10c-23-10-22-30 5-20zm-10 35 94 32c7 2 7 7-1 11-7 3-18 4-25 2l-61-21c-15-6-7-24 15-17zm12 42c8 3 15 5 23 7 7 3 7 8-1 12-6 3-15 4-30 2-35-7-28-31-10-26zM415 70c14 7 17 10 13 14s-10 4-17 1l-95-56c-20-12-4-21 20-6z" style="fill:#fff;fill-rule:nonzero;opacity:.5"/><use xlink:href="#a" id="c" style="stroke-width:18" transform="matrix(.65 0 0 .65 40 125)"/><use xlink:href="#a" id="d" style="stroke-width:18" transform="matrix(.65 0 0 .65 210 100)"/></defs><use xlink:href="#b"/><use xlink:href="#c" style="stroke:#fff;fill:#e6e6e6"/><use xlink:href="#d" style="stroke:#fff;fill:#e6e6e6"/><use xlink:href="#e"/></svg>