<svg xmlns="http://www.w3.org/2000/svg" xmlns:xlink="http://www.w3.org/1999/xlink" xml:space="preserve" width="480" height="420" style="shape-rendering:geometricPrecision;fill-rule:evenodd;clip-rule:evenodd"><defs><path id="b" d="M306 274c-11-5-24-10-43-6l43 6zm99-38c62-44 37-116-1-139-36-22-98-20-123 46-65 26-57 99-18 125-16 2-55 26-46 72 5 25 27 47 59 48h102c68-8 96-110 27-152zm-30-10c8 1 19 3 33 12l-33-12zm-94-83c20-8 33-5 46-1l-46 1z" style="stroke-width:12;fill:#b3b3b3;stroke:inherit;stroke-linecap:round;stroke-linejoin:round"/><g id="a" style="display:initial!important"><path d="m416 59-7 23m15-8-23-6" style="stroke:#52b1ff;stroke-width:8.85827;stroke-linecap:round;stroke-linejoin:round"/><path d="m90 105-12 45m29-16-45-12" style="stroke:gray;stroke-width:5.90551;stroke-linecap:round;stroke-linejoin:round"/><path d="m282 13-12 45m28-16-45-12" style="stroke:#ccc;stroke-width:2.95276;stroke-linecap:round;stroke-linejoin:round"/><path d="m59 58-6 23m14-9-23-6" style="stroke:#52b1ff;stroke-width:8.85827;stroke-linecap:round;stroke-linejoin:round"/><path d="m91 332-12 45m28-17-45-12m357-213-12 45m29-16-45-12" style="stroke:#fff;stroke-width:2.95276;stroke-linecap:round;stroke-linejoin:round"/><path d="M382 210c0-79-63-142-142-142S98 131 98 210s63 142 142 142 142-63 142-142z" style="fill:#023557;stroke:#062845;stroke-width:11.811"/><path d="M254 69h-14c-78 0-141 63-141 141s63 141 141 141h13c18-3 14-21 8-25-29-22-49-66-49-116 0-51 20-94 49-117 7-2 9-21-7-24z" style="fill:#fff2c9;stroke:#062845;stroke-width:11.811"/></g></defs><use xlink:href="#a"/><use xlink:href="#b" style="stroke:#023557"/></svg>