<svg xmlns="http://www.w3.org/2000/svg" xmlns:xlink="http://www.w3.org/1999/xlink" xml:space="preserve" width="480" height="420" style="shape-rendering:geometricPrecision;fill-rule:evenodd;clip-rule:evenodd"><defs><path id="a" d="M338 263c0-31-26-57-58-57-10 0-19 2-28 7-7-44-45-78-91-78-52 0-94 41-94 93 0 8 1 15 3 23-2-1-5-1-8-1-20 0-36 16-36 35 0 20 16 36 36 36h218c32 0 58-26 58-58zm-87-12c2-8 3-15 3-23 0-5-1-10-2-15" style="stroke:inherit;stroke-linecap:round;stroke-linejoin:round"/><use xlink:href="#a" id="c" style="stroke-width:18" transform="matrix(.65 0 0 .65 230 135)"/><g id="b" style="display:initial!important"><path d="m416 59-7 23m15-8-23-6" style="stroke:#52b1ff;stroke-width:8.85827;stroke-linecap:round;stroke-linejoin:round"/><path d="m90 105-12 45m29-16-45-12" style="stroke:gray;stroke-width:5.90551;stroke-linecap:round;stroke-linejoin:round"/><path d="m282 13-12 45m28-16-45-12" style="stroke:#ccc;stroke-width:2.95276;stroke-linecap:round;stroke-linejoin:round"/><path d="m59 58-6 23m14-9-23-6" style="stroke:#52b1ff;stroke-width:8.85827;stroke-linecap:round;stroke-linejoin:round"/><path d="m91 332-12 45m28-17-45-12m357-213-12 45m29-16-45-12" style="stroke:#fff;stroke-width:2.95276;stroke-linecap:round;stroke-linejoin:round"/><path d="M382 210c0-79-63-142-142-142S98 131 98 210s63 142 142 142 142-63 142-142z" style="fill:#023557;stroke:#062845;stroke-width:11.811"/><path d="M254 69h-14c-78 0-141 63-141 141s63 141 141 141h13c18-3 14-21 8-25-29-22-49-66-49-116 0-51 20-94 49-117 7-2 9-21-7-24z" style="fill:#fff2c9;stroke:#062845;stroke-width:11.811"/></g></defs><use xlink:href="#b"/><use xlink:href="#a" style="stroke:#023557;stroke-width:12;fill:#b3b3b3"/><use xlink:href="#c" style="stroke:#023557;fill:#b3b3b3"/></svg>