<svg xmlns="http://www.w3.org/2000/svg" xmlns:xlink="http://www.w3.org/1999/xlink" xml:space="preserve" width="480" height="420" style="shape-rendering:geometricPrecision;fill-rule:evenodd;clip-rule:evenodd"><defs><path id="a" d="M338 263c0-31-26-57-58-57-10 0-19 2-28 7-7-44-45-78-91-78-52 0-94 41-94 93 0 8 1 15 3 23-2-1-5-1-8-1-20 0-36 16-36 35 0 20 16 36 36 36h218c32 0 58-26 58-58zm-87-12c2-8 3-15 3-23 0-5-1-10-2-15" style="stroke:inherit;stroke-linecap:round;stroke-linejoin:round"/><use xlink:href="#a" id="b" style="stroke-width:18" transform="matrix(.65 0 0 .65 230 135)"/><g id="c" style="display:initial!important"><path d="m81 320 16-15c3 3 12 11 16 15 8 8 8 21 0 29-9 8-23 8-32 0s-9-21 0-29zm60 0 16-15c4 3 12 11 16 15 9 8 9 21 0 29s-23 8-32 0-9-21 0-29zm-31 38 16-15c4 3 12 11 16 15 9 8 9 21 0 29s-23 8-32 0-9-21 0-29zm61 0 16-15c4 3 12 11 16 15 9 8 9 21 0 29s-23 8-32 0c-8-8-8-21 0-29zm31-38 16-15c3 3 12 11 15 15 9 8 9 21 0 29-8 8-23 8-31 0-9-8-9-21 0-29z" style="stroke-width:14"/><path d="m81 320 16-15c3 3 12 11 16 15 8 8 8 21 0 29-9 8-23 8-32 0s-9-21 0-29zm60 0 16-15c4 3 12 11 16 15 9 8 9 21 0 29s-23 8-32 0-9-21 0-29zm-31 38 16-15c4 3 12 11 16 15 9 8 9 21 0 29s-23 8-32 0-9-21 0-29zm61 0 16-15c4 3 12 11 16 15 9 8 9 21 0 29s-23 8-32 0c-8-8-8-21 0-29zm31-38 16-15c3 3 12 11 15 15 9 8 9 21 0 29-8 8-23 8-31 0-9-8-9-21 0-29z"/></g></defs><use xlink:href="#a" style="stroke:#fff;stroke-width:12;fill:#b3b3b3"/><use xlink:href="#b" style="stroke:#fff;fill:#ccc"/><use xlink:href="#c" style="fill:#004174;stroke:#fff"/></svg>