<svg xmlns="http://www.w3.org/2000/svg" xmlns:xlink="http://www.w3.org/1999/xlink" xml:space="preserve" width="480" height="420" style="shape-rendering:geometricPrecision;fill-rule:evenodd;clip-rule:evenodd"><defs><path id="c" d="M89 334v7l-7-7-3 4 10 10v11l-10-6-4-13-4 1 2 9-6-4-3 4 7 4-9 3 1 4 14-4 9 6-9 6-14-4-1 4 9 3-7 4 3 4 6-4-2 9 4 1 4-13 10-6v11l-10 10 3 4 7-7v7h4v-7l7 7 3-4-10-10v-11l10 6 4 13 4-1-2-9 6 4 3-4-7-4 9-3-1-4-14 4-9-6 9-6 14 4 1-4-9-3 7-4-3-4-6 4 2-9-4-1-4 13-10 6v-11l10-10-3-4-7 7v-7zm63 0v7l-7-6-3 3 10 10v11l-10-5-3-14-5 1 2 9-6-3-2 4 6 3-9 3 1 4 14-3 10 5-10 6-14-4-1 5 9 2-6 4 2 4 6-4-2 9 5 2 3-14 10-6v11l-10 11 3 3 7-7v8h5v-8l6 7 4-3-10-11v-11l9 6 4 14 4-2-2-9 6 4 3-4-7-4 10-2-2-5-13 4-10-6 10-5 13 3 2-4-10-3 7-3-3-4-6 3 2-9-4-1-4 14-9 5v-11l10-10-4-3-6 6v-7zm63 0v7l-7-7-3 4 10 10v11l-10-6-3-13-5 1 3 9-7-4-2 4 6 4-9 3 1 4 14-4 10 6-10 6-14-4-1 4 9 3-6 4 2 4 7-4-3 9 5 1 3-13 10-6v11l-10 10 3 4 7-7v7h5v-7l6 7 4-4-10-10v-11l9 6 4 13 5-1-3-9 7 4 2-4-7-4 10-3-2-4-13 4-10-6 10-6 13 4 2-4-10-3 7-4-2-4-7 4 3-9-5-1-4 13-9 6v-11l10-10-4-4-6 7v-7z" style="display:initial!important;fill:#fff"/><path id="a" d="M338 263c0-31-26-57-58-57-10 0-19 2-28 7-7-44-45-78-91-78-52 0-94 41-94 93 0 8 1 15 3 23-2-1-5-1-8-1-20 0-36 16-36 35 0 20 16 36 36 36h218c32 0 58-26 58-58zm-87-12c2-8 3-15 3-23 0-5-1-10-2-15" style="stroke:inherit;stroke-linecap:round;stroke-linejoin:round"/><use xlink:href="#a" id="b" style="stroke-width:18" transform="matrix(.65 0 0 .65 230 135)"/></defs><use xlink:href="#a" style="stroke:#023557;stroke-width:12;fill:#b3b3b3"/><use xlink:href="#b" style="stroke:#023557;fill:#ccc"/><use xlink:href="#c"/></svg>