<svg xmlns="http://www.w3.org/2000/svg" xmlns:xlink="http://www.w3.org/1999/xlink" xml:space="preserve" width="480" height="420" style="shape-rendering:geometricPrecision;fill-rule:evenodd;clip-rule:evenodd"><defs><use xlink:href="#a" id="b" style="stroke-width:12"/><use xlink:href="#a" id="c" style="stroke-width:18" transform="matrix(.65 0 0 .65 230 135)"/><path id="a" d="M338 263c0-31-26-57-58-57-10 0-19 2-28 7-7-44-45-78-91-78-52 0-94 41-94 93 0 8 1 15 3 23-2-1-5-1-8-1-20 0-36 16-36 35 0 20 16 36 36 36h218c32 0 58-26 58-58zm-87-12c2-8 3-15 3-23 0-5-1-10-2-15" style="stroke:inherit;stroke-linecap:round;stroke-linejoin:round"/><g id="d" style="display:initial!important"><path d="M89 334v7l-7-7-3 4 10 10v11l-10-6-4-13-4 1 2 9-6-4-3 4 7 4-9 3 1 4 14-4 9 6-9 6-14-4-1 4 9 3-7 4 3 4 6-4-2 9 4 1 4-13 10-6v11l-10 10 3 4 7-7v7h4v-7l7 7 3-4-10-10v-11l10 6 4 13 4-1-2-9 6 4 3-4-7-4 9-3-1-4-14 4-9-6 9-6 14 4 1-4-9-3 7-4-3-4-6 4 2-9-4-1-4 13-10 6v-11l10-10-3-4-7 7v-7zm126 0v7l-7-7-3 4 10 10v11l-10-6-3-13-5 1 3 9-7-4-2 4 6 4-9 3 1 4 14-4 10 6-10 6-14-4-1 4 9 3-6 4 2 4 7-4-3 9 5 1 3-13 10-6v11l-10 10 3 4 7-7v7h5v-7l6 7 4-4-10-10v-11l9 6 4 13 5-1-3-9 7 4 2-4-7-4 10-3-2-4-13 4-10-6 10-6 13 4 2-4-10-3 7-4-2-4-7 4 3-9-5-1-4 13-9 6v-11l10-10-4-4-6 7v-7z" style="fill:#fff"/><path d="m148 323 16-15c3 3 12 11 16 15 9 8 9 21 0 29-9 9-23 9-32 0-9-8-9-21 0-29zm-31 38 16-15c3 3 12 11 16 15 9 8 9 21 0 29s-23 8-32 0-9-21 0-29z" style="stroke-width:14"/><path d="m148 323 16-15c3 3 12 11 16 15 9 8 9 21 0 29-9 9-23 9-32 0-9-8-9-21 0-29zm-31 38 16-15c3 3 12 11 16 15 9 8 9 21 0 29s-23 8-32 0-9-21 0-29z"/></g></defs><use xlink:href="#b" style="stroke:#023557;fill:#b3b3b3"/><use xlink:href="#c" style="stroke:#023557;fill:#ccc"/><use xlink:href="#d" style="fill:#52b1ff;stroke:#004174" transform="translate(20)"/></svg>