<svg xmlns="http://www.w3.org/2000/svg" xmlns:xlink="http://www.w3.org/1999/xlink" xml:space="preserve" width="480" height="420" style="shape-rendering:geometricPrecision;fill-rule:evenodd;clip-rule:evenodd"><defs><g id="a" style="display:initial!important;fill:#ffe19c"><path d="M96 253C342 281 528-20 354 55 587-56 344 316 96 253zm-40 86c295 17 445 85 360-11 32 52-96-3-360 11z"/><path d="M11 285c177 86 406-57 405-103-27 42-258 151-405 103zm54-94c62-17 79-32 148-17-37-34-97-21-148 17z"/><circle cx="326" cy="288" r="6"/><circle cx="378" cy="310" r="11"/><circle cx="417" cy="265" r="15"/><circle cx="436" cy="153" r="11"/><circle cx="446" cy="294" r="7"/></g></defs><use xlink:href="#a"/></svg>