<?xml version="1.0" encoding="UTF-8" standalone="no"?>
<!-- Created with Inkscape (http://www.inkscape.org/) -->

<svg
   width="66.066452mm"
   height="43.391659mm"
   viewBox="0 0 66.066452 43.391659"
   version="1.1"
   id="svg1"
   xml:space="preserve"
   xmlns:inkscape="http://www.inkscape.org/namespaces/inkscape"
   xmlns:sodipodi="http://sodipodi.sourceforge.net/DTD/sodipodi-0.dtd"
   xmlns="http://www.w3.org/2000/svg"
   xmlns:svg="http://www.w3.org/2000/svg"><sodipodi:namedview
     id="namedview1"
     pagecolor="#ffffff"
     bordercolor="#000000"
     borderopacity="0.25"
     inkscape:showpageshadow="2"
     inkscape:pageopacity="0.0"
     inkscape:pagecheckerboard="0"
     inkscape:deskcolor="#d1d1d1"
     inkscape:document-units="mm"><inkscape:page
       x="0"
       y="0"
       width="66.066452"
       height="43.391659"
       id="page2"
       margin="0"
       bleed="0" /></sodipodi:namedview><defs
     id="defs1" /><g
     inkscape:label="Camada 1"
     inkscape:groupmode="layer"
     id="layer1"
     transform="translate(-72.728098,-133.29493)"><g
       id="g1093"
       transform="matrix(0.26458333,0,0,0.26458333,37.015209,126.49729)"><g
         id="g1074"
         transform="translate(134.97783,24.791846)"><polyline
           class="st0"
           points="0,110.9 0,35.7 18.8,35.7 18.8,95.1 48.2,95.1 48.2,110.9 0,110.9   "
           id="polyline4"
           style="fill:#000000" /><path
           class="st0"
           d="M 143.8,49.6 V 69.9 H 161 c 6.7,0 10.1,-3.4 10.1,-10.1 0,-6.8 -3.3,-10.1 -10.1,-10.1 H 143.8 Z M 125,110.9 V 35.7 h 37.6 c 18.2,0 27.3,8.2 27.3,24.7 0,4.9 -1.4,9.1 -4.2,12.7 -2.8,3.6 -6.6,6.2 -11.3,7.6 l 17.2,30.2 h -21 L 155.8,83.8 h -12 v 27.1 H 125"
           id="path6"
           style="fill:#000000" /><path
           class="st0"
           d="m 232.4,87.5 v -3.9 l -11.1,3.2 c -5.3,1.5 -7.9,3.9 -7.9,7.3 0,4.2 2.6,6.3 7.7,6.3 3.4,0 6.1,-1.1 8.2,-3.3 2,-2.3 3.1,-5.5 3.1,-9.6 m 15.8,-18 v 29.7 c 0,5.3 0.5,9.2 1.5,11.7 h -15.2 c -0.6,-1.8 -0.9,-3.7 -1,-5.8 h -0.2 c -1.3,2.1 -3.8,3.9 -7.3,5.3 -3.2,1.3 -6.4,2 -9.6,2 -5.6,0 -10,-1.4 -13.4,-4.3 -3.6,-3 -5.4,-7.2 -5.4,-12.4 0,-6.4 2.6,-11.3 7.7,-14.6 4.4,-2.8 11.4,-4.9 21.1,-6.2 l 6,-0.8 v -4.7 c 0,-4 -2.6,-6 -7.8,-6 -2.7,0 -4.7,0.6 -6,1.7 -1.3,1.1 -2.2,3.1 -2.6,5.8 h -16 c 0.3,-11.8 8.1,-17.6 23.2,-17.6 8.2,0 14.3,1.1 18.3,3.4 4.5,2.5 6.7,6.8 6.7,12.8"
           id="path8"
           style="fill:#000000" /><path
           class="st0"
           d="m 84,65.8 c -4.5,0 -7.9,1.6 -10.2,4.9 -2.1,3 -3.2,7 -3.2,12.1 0,5.1 1.1,9.1 3.2,12.1 2.3,3.3 5.7,4.9 10.2,4.9 9,0 13.4,-5.9 13.4,-17.7 0,-4.8 -1.1,-8.7 -3.2,-11.6 C 91.9,67.4 88.5,65.8 84,65.8 m 0,-12.6 c 9,0 16.2,2.6 21.7,7.8 5.5,5.2 8.2,12.5 8.2,21.8 0,9.3 -2.7,16.6 -8.2,21.8 -5.5,5.2 -12.7,7.8 -21.7,7.8 -9,0 -16.2,-2.6 -21.7,-7.8 -5.5,-5.2 -8.2,-12.5 -8.2,-21.8 0,-9.3 2.7,-16.6 8.2,-21.8 5.6,-5.2 12.8,-7.8 21.7,-7.8"
           id="path10"
           style="fill:#000000" /><path
           class="st0"
           d="m 83.5,42 c 8.2,0 15.9,2.4 22.3,6.6 L 109,44 c -7.4,-4.8 -16.1,-7.6 -25.5,-7.6 -9,0 -17.4,2.6 -24.6,7 l 3.2,4.6 c 6.3,-3.9 13.6,-6 21.4,-6"
           id="path12"
           style="fill:#009fe3" /><path
           class="st0"
           d="m 48.9,29 4.3,6.1 c 8.8,-5.6 19.2,-8.8 30.3,-8.8 11.6,0 22.3,3.5 31.3,9.4 l 4.3,-6.1 C 108.9,22.8 96.6,18.8 83.5,18.8 70.8,18.8 58.9,22.6 48.9,29"
           id="path14"
           style="fill:#009fe3" /><path
           class="st0"
           d="m 83.5,10.3 c 15,0 28.9,4.5 40.6,12.3 l 5.4,-7.7 C 116.4,6 100.5,0.9 83.5,0.9 67,0.9 51.5,5.8 38.6,14.2 L 44,21.9 C 55.4,14.6 68.9,10.3 83.5,10.3"
           id="path16"
           style="fill:#009fe3" /><path
           class="st0"
           d="m 84.6,123.8 c -8.2,0 -15.9,-2.4 -22.3,-6.6 l -3.2,4.6 c 7.4,4.8 16.1,7.6 25.6,7.6 9,0 17.4,-2.6 24.6,-7 l -3.2,-4.6 c -6.4,3.9 -13.7,6 -21.5,6"
           id="path18"
           style="fill:#009fe3" /><path
           class="st0"
           d="m 119.2,136.8 -4.3,-6.1 c -8.8,5.6 -19.2,8.8 -30.3,8.8 -11.6,0 -22.3,-3.5 -31.3,-9.4 l -4.3,6.1 c 10.2,6.8 22.4,10.8 35.6,10.8 12.7,0 24.6,-3.8 34.6,-10.2"
           id="path20"
           style="fill:#009fe3" /><path
           class="st0"
           d="m 84.6,155.5 c -15,0 -28.9,-4.5 -40.6,-12.3 l -5.4,7.7 c 13.1,8.8 29,14 46,14 16.5,0 32,-4.9 44.9,-13.3 l -5.4,-7.7 c -11.4,7.3 -25,11.6 -39.5,11.6"
           id="path22"
           style="fill:#009fe3" /></g></g></g><style
     type="text/css"
     id="style2">
	.st0{fill:#FFFFFF;}
	.st1{fill-rule:evenodd;clip-rule:evenodd;fill:#FFFFFF;}
</style></svg>
